<?xml version="1.0" encoding="utf-8"?>
<!-- Generator: Adobe Illustrator 24.0.0, SVG Export Plug-In . SVG Version: 6.00 Build 0)  -->
<svg version="1.1" id="Warstwa_1" xmlns="http://www.w3.org/2000/svg" xmlns:xlink="http://www.w3.org/1999/xlink" x="0px" y="0px"
	 viewBox="0 0 640 480" style="enable-background:new 0 0 640 480;" xml:space="preserve">
<style type="text/css">
	.st0{fill:none;}
	.st1{fill:none;stroke:#F0C400;stroke-width:5;stroke-miterlimit:10;}
</style>
<path class="st0" d="M209.52,269.94c1.53,5.01,3.03,10.03,4.48,15.06"/>
<path class="st0" d="M184.92,191.11c5.69,19.47,11.99,38.76,18.13,58.09"/>
<path class="st0" d="M160,108c3,15,10,29,13,44c1,3,3,6,3.16,8.97"/>
<line class="st0" x1="183" y1="197" x2="132" y2="216"/>
<line class="st1" x1="143.5" y1="151.5" x2="67.5" y2="306.5"/>
<line class="st1" x1="201.5" y1="108.5" x2="339.5" y2="160.5"/>
<line class="st1" x1="475.5" y1="144.5" x2="589.5" y2="254.5"/>
<line class="st1" x1="237.5" y1="220.5" x2="213.5" y2="339.5"/>
<line class="st1" x1="140.5" y1="303.5" x2="176.5" y2="378.5"/>
<line class="st1" x1="539.5" y1="57.5" x2="625.5" y2="163.5"/>
<line class="st1" x1="554.5" y1="401.5" x2="473.5" y2="433.5"/>
<line class="st1" x1="327.5" y1="409.5" x2="400.5" y2="260.5"/>
<line class="st1" x1="524.5" y1="301.5" x2="601.5" y2="341.5"/>
<line class="st1" x1="26.5" y1="447.5" x2="63.5" y2="467.5"/>
</svg>
